<svg xmlns="http://www.w3.org/2000/svg" width="24in" height="19.8in" viewBox="0 0 1728 1425.6000000000001"><g/><g/><g/><g/><g/><g/><g/><g/><g/><g/><circle class="st0" cx="251.99999445674018" cy="188.4600004023314" r="5.62" fill="none" stroke="#000000"/><circle class="st0" cx="208.07999445674022" cy="135.54000040233132" r="5.62" fill="none" stroke="#000000"/><circle class="st0" cx="251.9999944567403" cy="339.12000040233136" r="7.09" fill="none" stroke="#000000"/><circle class="st0" cx="251.99999445674018" cy="92.88000040233135" r="7.09" fill="none" stroke="#000000"/><circle class="st0" cx="54.42999099999997" cy="639.7100004" r="7.51" fill="none" stroke="#000000"/><circle class="st0" cx="54.42999099999997" cy="582.1100004000001" r="7.51" fill="none" stroke="#000000"/><circle class="st0" cx="62.649991" cy="525.3000004" r="5.1" fill="none" stroke="#000000"/><circle class="st0" cx="62.649991000000114" cy="771.5400004" r="5.1" fill="none" stroke="#000000"/><circle class="st0" cx="226.20999100000006" cy="771.5400004" r="5.1" fill="none" stroke="#000000"/><circle class="st0" cx="226.20999099999995" cy="525.3000004" r="5.1" fill="none" stroke="#000000"/><circle class="st0" cx="44.98999099999992" cy="702.4200004" r="7.8" fill="none" stroke="#000000"/><circle class="st0" cx="72.8799909999999" cy="468.42000040000005" r="8.22" fill="none" stroke="#000000"/><circle class="st0" cx="215.96999099999994" cy="468.42000040000005" r="8.22" fill="none" stroke="#000000"/><circle class="st0" cx="234.42999099999997" cy="582.1100004000001" r="7.51" fill="none" stroke="#000000"/><circle class="st0" cx="377.9999945" cy="216.00000039999998" r="31.32" fill="none" stroke="#000000"/><circle class="st0" cx="536.3999945" cy="339.1200004" r="7.09" fill="none" stroke="#000000"/><circle class="st0" cx="536.3999944999998" cy="92.88000039999997" r="7.09" fill="none" stroke="#000000"/><circle class="st0" cx="421.93999450000007" cy="259.94000040000003" r="4.25" fill="none" stroke="#000000"/><circle class="st0" cx="334.06999450000006" cy="172.06000039999992" r="4.25" fill="none" stroke="#000000"/><circle class="st0" cx="334.06999450000006" cy="259.94000040000003" r="4.25" fill="none" stroke="#000000"/><circle class="st0" cx="421.93999450000007" cy="172.06000039999992" r="4.25" fill="none" stroke="#000000"/><circle class="st0" cx="307.4653113999999" cy="882.8500004" r="7.8" fill="none" stroke="#000000"/><circle class="st0" cx="163.4653113999999" cy="882.8500004" r="6.38" fill="none" stroke="#000000"/><circle class="st0" cx="19.465311399999905" cy="882.8500004" r="7.8" fill="none" stroke="#000000"/><circle class="st0" cx="18.77933870000004" cy="919.6091442000001" r="7.8" fill="none" stroke="#000000"/><circle class="st0" cx="162.77933870000004" cy="919.6091442000001" r="6.38" fill="none" stroke="#000000"/><circle class="st0" cx="306.77933870000004" cy="919.6091442000001" r="7.8" fill="none" stroke="#000000"/><circle class="st0" cx="18.77933870000004" cy="963.4479153000001" r="7.8" fill="none" stroke="#000000"/><circle class="st0" cx="162.77933870000004" cy="963.4479153000001" r="6.38" fill="none" stroke="#000000"/><circle class="st0" cx="306.77933870000004" cy="963.4479153000001" r="7.8" fill="none" stroke="#000000"/><circle class="st0" cx="307.4653113999999" cy="999.4479153" r="7.8" fill="none" stroke="#000000"/><circle class="st0" cx="163.4653113999999" cy="999.4479153" r="6.38" fill="none" stroke="#000000"/><circle class="st0" cx="19.465311399999905" cy="999.4479153" r="7.8" fill="none" stroke="#000000"/><path class="st0" d="M 270.849991 864.8500004000001 L 270.849991 828.8500004000001 L 270.849991 828.8500004000001 L 288.849991 828.8500004000001 L 288.849991 828.8500004000001 L 288.849991 792.0000004000002 L 288.849991 792.0000004000002 L 270.849991 792.0000004000002 L 270.849991 792.0000004000002 L 270.849991 756.8500004000002 L 270.849991 756.8500004000002 L 288.849991 756.8500004000002 L 288.849991 756.8500004000002 L 288.849991 720.0000004000002 L 288.849991 720.0000004000002 L 270.849991 720.0000004000002 L 270.849991 720.0000004000002 L 270.849991 693.0000004000002 L 270.849991 693.0000004000002 L 234.84999099999993 693.0000004000002 L 234.84999099999993 693.0000004000002 L 234.84999099999993 646.8000004000002 L 234.84999099999993 646.8000004000002 L 234.41999099999998 646.8000004000002 L 234.41999099999998 646.8000004000002 C 230.5099909999999 646.8000004000002 227.32999099999995 643.6200004000002 227.32999099999995 639.7100004000001 C 227.32999099999995 635.8000004 230.509991 632.6200004000001 234.41999099999998 632.6200004000001 L 234.41999099999998 632.6200004000001 L 234.84999099999993 632.6200004000001 L 234.84999099999993 632.6200004000001 L 234.84999099999993 603.8500004000001 L 234.84999099999993 603.8500004000001 L 269.99999099999997 603.8500004000001 L 269.99999099999997 603.8500004000001 L 269.99999099999997 612.8500004000001 L 269.99999099999997 612.8500004000001 L 288.849991 612.8500004000001 L 288.849991 612.8500004000001 L 288.849991 576.0000004000001 L 288.849991 576.0000004000001 L 270.849991 576.0000004000001 L 270.849991 576.0000004000001 L 270.849991 540.8500004000001 L 270.849991 540.8500004000001 L 288.849991 540.8500004000001 L 288.849991 540.8500004000001 L 288.849991 504.0000004000001 L 288.849991 504.0000004000001 L 270.849991 504.0000004000001 L 270.849991 504.0000004000001 L 270.849991 468.8500004000001 L 270.849991 468.8500004000001 L 288.849991 468.8500004000001 L 288.849991 468.8500004000001 L 288.849991 432.0000004000001 L 288.849991 432.0000004000001 L 251.9999909999999 432.0000004000001 L 251.9999909999999 432.0000004000001 L 251.9999909999999 450.0000004000001 L 251.9999909999999 450.0000004000001 L 216.84999099999993 450.0000004000001 L 216.84999099999993 450.0000004000001 L 216.84999099999993 432.0000004000001 L 216.84999099999993 432.0000004000001 L 179.9999909999999 432.0000004000001 L 179.9999909999999 432.0000004000001 L 179.9999909999999 450.0000004000001 L 179.9999909999999 450.0000004000001 L 144.84999099999993 450.0000004000001 L 144.84999099999993 450.0000004000001 L 144.84999099999993 432.0000004000001 L 144.84999099999993 432.0000004000001 L 107.99999099999991 432.0000004000001 L 107.99999099999991 432.0000004000001 L 107.99999099999991 450.0000004000001 L 107.99999099999991 450.0000004000001 L 72.84999099999993 450.0000004000001 L 72.84999099999993 450.0000004000001 L 72.84999099999993 432.0000004000001 L 72.84999099999993 432.0000004000001 L 35.99999099999991 432.0000004000001 L 35.99999099999991 432.0000004000001 L 35.99999099999991 450.0000004000001 L 35.99999099999991 450.0000004000001 L -0.000009000000090964029 450.0000004000001 L -0.000009000000090964029 450.0000004000001 L -0.000009000000090964029 468.8500004000001 L -0.000009000000090964029 468.8500004000001 L 17.99999099999991 468.8500004000001 L 17.99999099999991 468.8500004000001 L 17.99999099999991 504.0000004000001 L 17.99999099999991 504.0000004000001 L -0.000009000000090964029 504.0000004000001 L -0.000009000000090964029 504.0000004000001 L -0.000009000000090964029 540.8500004000001 L -0.000009000000090964029 540.8500004000001 L 17.99999099999991 540.8500004000001 L 17.99999099999991 540.8500004000001 L 17.99999099999991 576.0000004000001 L 17.99999099999991 576.0000004000001 L -0.000009000000090964029 576.0000004000001 L -0.000009000000090964029 576.0000004000001 L -0.000009000000090964029 612.8500004000001 L -0.000009000000090964029 612.8500004000001 L 17.99999099999991 612.8500004000001 L 17.99999099999991 612.8500004000001 L 17.99999099999991 648.0000004000001 L 17.99999099999991 648.0000004000001 L -0.000009000000090964029 648.0000004000001 L -0.000009000000090964029 648.0000004000001 L -0.000009000000090964029 684.8500004000001 L -0.000009000000090964029 684.8500004000001 L 17.99999099999991 684.8500004000001 L 17.99999099999991 684.8500004000001 L 17.999991000000023 720.0000004000001 L 17.999991000000023 720.0000004000001 L -0.00000899999997727719 720.0000004000001 L -0.00000899999997727719 720.0000004000001 L -0.00000899999997727719 756.8500004000001 L -0.00000899999997727719 756.8500004000001 L 17.999991000000023 756.8500004000001 L 17.999991000000023 756.8500004000001 L 17.999991000000023 792.0000004000001 L 17.999991000000023 792.0000004000001 L -0.00000899999997727719 792.0000004000001 L -0.000008999999977277184 792.0000004000001 L -0.000008999999977277184 828.8500004000001 L -0.000008999999977277184 828.8500004000001 L 17.999991000000023 828.8500004000001 L 17.999991000000023 828.8500004000001 L 17.999991000000023 846.8500004000001 L 17.999991000000023 846.8500004000001 L 35.99999100000002 846.8500004000001 L 35.99999100000002 846.8500004000001 L 35.99999100000002 864.8500004000001" fill="none" stroke="#000000"/><path d="M 449.9999945 208.91000039999994 C 446.08999450000005 208.91000039999994 442.9099945 212.0800003999999 442.9099945 216.00000039999998 C 442.9099945 219.92000040000005 446.07999449999994 223.0900004 449.9999945 223.0900004 L 449.9999945 223.0900004 L 539.9999945 223.0900004 L 539.9999945 223.0900004 C 543.9099945 223.0900004 547.0899945000001 219.92000040000005 547.0899945000001 216.00000039999998 C 547.0899945000001 212.0800003999999 543.9199945 208.91000039999994 539.9999945 208.91000039999994 L 539.9999945 208.91000039999994 L 449.9999945 208.91000039999994 z" fill="none" stroke="#000000"/><path class="st0" d="M 307.4653113999999 900.8500004 C 317.40531139999996 900.8500004 325.4653113999999 892.7900004 325.4653113999999 882.8500004 C 325.4653113999999 872.9100004 317.40531139999996 864.8500004 307.4653113999999 864.8500004 L 307.4653113999999 864.8500004 L 19.465311399999905 864.8500004 L 19.465311399999905 864.8500004 C 9.52531139999985 864.8500004 1.4653114000000187 872.9100004 1.4653114000000187 882.8500004 C 1.4653114000000187 892.7900004 9.52531139999985 900.8500004 19.465311399999905 900.8500004 L 19.465311399999905 900.8500004 L 307.4653113999999 900.8500004 z" fill="none" stroke="#000000"/><path d="M 542.2446467 972.0000004 C 550.1946467 972.0000004 556.6446467 965.5500003999999 556.6446467 957.6000004 C 556.6446467 949.6500004 550.1946466999999 943.2000004 542.2446467 943.2000004 L 542.2446467 943.2000004 L 398.2446467 943.2000004 L 398.2446467 943.2000004 C 390.29464669999993 943.2000004 383.8446467 949.6500004000001 383.8446467 957.6000004 C 383.8446467 965.5500004 390.29464670000004 972.0000004 398.2446467 972.0000004 L 398.2446467 972.0000004 L 542.2446467 972.0000004 z" fill="none" stroke="#000000"/><path class="st0" d="M 18.77933870000004 901.6091442000001 C 8.839338699999985 901.6091442000001 0.7793387000000394 909.6691442 0.7793387000000394 919.6091442000001 C 0.7793387000000394 929.5491442000001 8.839338699999985 937.6091442000001 18.77933870000004 937.6091442000001 L 18.77933870000004 937.6091442000001 L 306.77933870000004 937.6091442000001 L 306.77933870000004 937.6091442000001 C 316.7193387000001 937.6091442000001 324.77933870000004 929.5491442000001 324.77933870000004 919.6091442000001 C 324.77933870000004 909.6691442 316.7193387000001 901.6091442000001 306.77933870000004 901.6091442000001 L 306.77933870000004 901.6091442000001 L 18.77933870000004 901.6091442000001 z" fill="none" stroke="#000000"/><path class="st0" d="M 306.77933870000004 981.4479153000001 C 316.7193387000001 981.4479153000001 324.77933870000004 973.3879153000001 324.77933870000004 963.4479153000001 C 324.77933870000004 953.5079153 316.7193387000001 945.4479153000001 306.77933870000004 945.4479153000001 L 306.77933870000004 945.4479153000001 L 18.77933870000004 945.4479153000001 L 18.77933870000004 945.4479153000001 C 8.839338699999985 945.4479153000001 0.7793387000000394 953.5079153 0.7793387000000394 963.4479153000001 C 0.7793387000000394 973.3879153000001 8.839338699999985 981.4479153000001 18.77933870000004 981.4479153000001 L 18.77933870000004 981.4479153000001 L 307.4653113999999 981.4479153000001 L 307.4653113999999 981.4479153 C 317.40531139999996 981.4479153 325.4653113999999 989.5079152999999 325.4653113999999 999.4479153 C 325.4653113999999 1009.3879153 317.40531139999996 1017.4479153 307.4653113999999 1017.4479153 L 307.4653113999999 1017.4479153 L 19.465311399999905 1017.4479153 L 19.465311399999905 1017.4479153 C 9.52531139999985 1017.4479153 1.4653114000000187 1009.3879153 1.4653114000000187 999.4479153 C 1.4653114000000187 989.5079152999999 9.52531139999985 981.4479153 19.465311399999905 981.4479153" fill="none" stroke="#000000"/><path d="M 269.99999445674024 432.00000040233135 L 269.99999445674024 396.00000040233135 L 269.99999445674024 396.00000040233135 L 287.99999445674024 396.00000040233135 L 287.99999445674024 396.00000040233135 L 287.99999445674024 360.00000040233135 L 287.99999445674024 360.00000040233135 L 269.99999445674024 360.00000040233135 L 269.99999445674024 360.00000040233135 L 269.99999445674024 324.00000040233135 L 269.99999445674024 324.00000040233135 L 287.99999445674024 324.00000040233135 L 287.99999445674024 324.00000040233135 L 287.99999445674024 288.00000040233135 L 287.99999445674024 288.00000040233135 L 269.99999445674024 288.00000040233135 L 269.99999445674024 288.00000040233135 L 269.99999445674024 252.00000040233135 L 269.99999445674024 252.00000040233135 L 287.99999445674024 252.00000040233135 L 287.99999445674024 252.00000040233135 L 287.99999445674024 216.00000040233135 L 287.99999445674024 216.00000040233135 L 269.99999445674024 216.00000040233135 L 269.99999445674024 216.00000040233135 L 269.99999445674024 180.00000040233135 L 269.99999445674024 180.00000040233135 L 287.99999445674024 180.00000040233135 L 287.99999445674024 180.00000040233135 L 287.99999445674024 144.00000040233135 L 287.99999445674024 144.00000040233135 L 269.99999445674024 144.00000040233135 L 269.99999445674024 144.00000040233135 L 269.99999445674024 108.00000040233135 L 269.99999445674024 108.00000040233135 L 287.99999445674024 108.00000040233135 L 287.99999445674024 108.00000040233135 L 287.99999445674024 72.00000040233135 L 287.99999445674024 72.00000040233135 L 269.99999445674024 72.00000040233135 L 269.99999445674024 72.00000040233135 L 269.99999445674024 36.00000040233135 L 269.99999445674024 36.00000040233135 L 287.99999445674024 36.00000040233135 L 287.99999445674024 36.00000040233135 L 287.99999445674024 4.023313522338867e-7 L 287.99999445674024 4.023313522338867e-7 L 251.99999445674018 4.023313522338867e-7 L 251.99999445674018 4.023313522338867e-7 L 251.99999445674018 18.000000402331352 L 251.99999445674018 18.000000402331352 L 215.99999445674018 18.000000402331352 L 215.99999445674018 18.000000402331352 L 215.99999445674018 4.023313522338867e-7 L 215.99999445674018 4.023313522338867e-7 L 179.99999445674018 4.023313522338867e-7 L 179.99999445674018 4.023313522338867e-7 L 179.99999445674018 18.000000402331352 L 179.99999445674018 18.000000402331352 L 143.99999445674018 18.000000402331352 L 143.99999445674018 18.000000402331352 L 143.99999445674018 4.023313522338867e-7 L 143.99999445674018 4.023313522338867e-7 L 107.99999445674018 4.023313522338867e-7 L 107.99999445674018 4.023313522338867e-7 L 107.99999445674018 18.000000402331352 L 107.99999445674018 18.000000402331352 L 71.99999445674018 18.000000402331352 L 71.99999445674018 18.000000402331352 L 71.99999445674018 4.023313522338867e-7 L 71.99999445674018 4.023313522338867e-7 L 35.99999445674018 4.023313522338867e-7 L 35.99999445674018 4.023313522338867e-7 L 35.99999445674018 18.000000402331352 L 35.99999445674018 18.000000402331352 L -0.00000554325981738657 18.000000402331352 L -0.00000554325981738657 18.000000402331352 L -0.00000554325981738657 36.00000040233135 L -0.00000554325981738657 36.00000040233135 L 17.999994456740183 36.00000040233135 L 17.999994456740183 36.00000040233135 L 17.999994456740183 72.00000040233135 L 17.999994456740183 72.00000040233135 L -0.00000554325981738657 72.00000040233135 L -0.00000554325981738657 72.00000040233135 L -0.00000554325981738657 108.00000040233135 L -0.00000554325981738657 108.00000040233135 L 17.999994456740183 108.00000040233135 L 17.999994456740183 108.00000040233135 L 17.999994456740183 144.00000040233135 L 17.999994456740183 144.00000040233135 L -0.00000554325981738657 144.00000040233135 L -0.00000554325981738657 144.00000040233135 L -0.00000554325981738657 180.00000040233135 L -0.00000554325981738657 180.00000040233135 L 17.999994456740183 180.00000040233135 L 17.999994456740183 180.00000040233135 L 17.999994456740183 216.00000040233135 L 17.999994456740183 216.00000040233135 L -0.00000554325981738657 216.00000040233135 L -0.00000554325981738657 216.00000040233135 L -0.00000554325981738657 252.00000040233135 L -0.00000554325981738657 252.00000040233135 L 17.999994456740183 252.00000040233135 L 17.999994456740183 252.00000040233135 L 17.999994456740296 288.00000040233135 L 17.999994456740296 288.00000040233135 L -0.000005543259703699732 288.00000040233135 L -0.000005543259703699732 288.00000040233135 L -0.000005543259703699732 324.00000040233135 L -0.000005543259703699732 324.00000040233135 L 17.999994456740296 324.00000040233135 L 17.999994456740296 324.00000040233135 L 17.999994456740296 360.00000040233135 L 17.999994456740296 360.00000040233135 L -0.000005543259703699732 360.00000040233135 L -0.000005543259703699732 360.00000040233135 L -0.000005543259703699732 396.00000040233135 L -0.000005543259703699732 396.00000040233135 L 17.999994456740296 396.00000040233135 L 17.999994456740296 396.00000040233135 L 17.999994456740296 414.00000040233135 L 17.999994456740296 414.00000040233135 L 35.999994456740296 414.00000040233135 L 35.999994456740296 414.00000040233135 L 35.999994456740296 432.00000040233135" fill="none" stroke="#000000"/><path d="M 251.9999944567403 432.00000040233135 L 251.9999944567403 414.00000040233135 L 251.9999944567403 414.00000040233135 L 215.9999944567403 414.00000040233135 L 215.9999944567403 414.00000040233135 L 215.9999944567403 432.00000040233135" fill="none" stroke="#000000"/><path d="M 179.9999944567403 432.00000040233135 L 179.9999944567403 414.00000040233135 L 179.9999944567403 414.00000040233135 L 143.9999944567403 414.00000040233135 L 143.9999944567403 414.00000040233135 L 143.9999944567403 432.00000040233135" fill="none" stroke="#000000"/><path d="M 107.9999944567403 432.00000040233135 L 107.9999944567403 414.00000040233135 L 107.9999944567403 414.00000040233135 L 71.9999944567403 414.00000040233135 L 71.9999944567403 414.00000040233135 L 71.9999944567403 432.00000040233135" fill="none" stroke="#000000"/><path d="M 251.99999100000002 864.8500004000001 L 251.99999100000002 846.8500004000001 L 251.99999100000002 846.8500004000001 L 216.84999100000005 846.8500004000001 L 216.84999100000005 846.8500004000001 L 216.84999100000005 864.8500004000001" fill="none" stroke="#000000"/><path d="M 179.99999100000002 864.8500004000001 L 179.99999100000002 846.8500004000001 L 179.99999100000002 846.8500004000001 L 144.84999100000005 846.8500004000001 L 144.84999100000005 846.8500004000001 L 144.84999100000005 864.8500004000001" fill="none" stroke="#000000"/><path d="M 107.99999100000002 864.8500004000001 L 107.99999100000002 846.8500004000001 L 107.99999100000002 846.8500004000001 L 72.84999100000005 846.8500004000001 L 72.84999100000005 846.8500004000001 L 72.84999100000005 864.8500004000001" fill="none" stroke="#000000"/><path d="M 208.20999100000006 731.9400004 L 208.20999100000006 811.1400004000001 L 208.20999100000006 811.1400004000001 L 80.64999100000011 811.1400004000001 L 80.64999100000011 811.1400004000001 L 80.64999100000011 731.9400004 L 80.64999100000011 731.9400004 L 208.20999100000006 731.9400004 z" fill="none" stroke="#000000"/><path d="M 80.649991 564.9000004000001 L 80.649991 485.7000004 L 80.649991 485.7000004 L 208.20999099999995 485.7000004 L 208.20999099999995 485.7000004 L 208.20999099999995 564.9000004000001 L 208.20999099999995 564.9000004000001 L 80.649991 564.9000004000001 z" fill="none" stroke="#000000"/><path d="M 539.9999945 432.0000004 L 539.9999945 414.0000004 L 539.9999945 414.0000004 L 575.9999945 414.0000004 L 575.9999945 414.0000004 L 575.9999945 396.0000004 L 575.9999945 396.0000004 L 557.9999945 396.0000004 L 557.9999945 396.0000004 L 557.9999945 360.0000004 L 557.9999945 360.0000004 L 575.9999945 360.0000004 L 575.9999945 360.0000004 L 575.9999945 324.0000004 L 575.9999945 324.0000004 L 557.9999945 324.0000004 L 557.9999945 324.0000004 L 557.9999945 288.0000004 L 557.9999945 288.0000004 L 575.9999945 288.0000004 L 575.9999945 288.0000004 L 575.9999945 252.00000039999998 L 575.9999945 252.00000039999998 L 557.9999945 252.00000039999998 L 557.9999945 252.00000039999998 L 557.9999945 216.00000039999998 L 557.9999945 216.00000039999998 L 575.9999945 216.00000039999998 L 575.9999945 216.00000039999998 L 575.9999945 180.00000039999998 L 575.9999945 180.00000039999998 L 557.9999945 180.00000039999998 L 557.9999945 180.00000039999998 L 557.9999945 144.00000039999998 L 557.9999945 144.00000039999998 L 575.9999945 144.00000039999998 L 575.9999945 144.00000039999998 L 575.9999945 108.00000039999998 L 575.9999945 108.00000039999998 L 557.9999945 108.00000039999998 L 557.9999945 108.00000039999998 L 557.9999945 72.00000039999998 L 557.9999945 72.00000039999998 L 575.9999945 72.00000039999998 L 575.9999945 72.00000039999998 L 575.9999945 36.00000039999986 L 575.9999945 36.00000039999986 L 557.9999945 36.00000039999986 L 557.9999945 36.00000039999986 L 557.9999945 18.000000399999863 L 557.9999945 18.000000399999863 L 539.9999945 18.000000399999863 L 539.9999945 18.000000399999863 L 539.9999945 3.999998625658918e-7 L 539.9999945 3.999998625658918e-7 L 503.9999944999999 3.999998625658918e-7 L 503.9999944999999 3.999998625658918e-7 L 503.9999944999999 18.000000399999863 L 503.9999944999999 18.000000399999863 L 467.9999944999999 18.000000399999863 L 467.9999944999999 18.000000399999863 L 467.9999944999999 3.999998625658918e-7 L 467.9999944999999 3.999998625658918e-7 L 431.9999944999999 3.999998625658918e-7 L 431.9999944999999 3.999998625658918e-7 L 431.9999944999999 18.000000399999863 L 431.9999944999999 18.000000399999863 L 395.9999944999999 18.00000040000009 L 395.9999944999999 18.00000040000009 L 395.9999944999999 4.0000008993956726e-7 L 395.9999944999999 4.0000008993956726e-7 L 359.9999944999999 4.0000008993956726e-7 L 359.9999944999999 4.0000008993956726e-7 L 359.9999944999999 18.00000040000009 L 359.9999944999999 18.00000040000009 L 323.9999944999999 18.00000040000009 L 323.9999944999999 18.00000040000009 L 323.9999944999999 4.0000008993956726e-7 L 323.9999944999999 4.0000008993956726e-7 L 305.99999449999996 4.0000008993956726e-7 L 305.99999449999996 4.0000008993956726e-7 L 305.99999449999996 36.00000040000009 L 305.99999449999996 36.00000040000009 L 287.99999449999996 36.00000040000009 L 287.99999449999996 36.00000040000009 L 287.99999449999996 72.00000039999998 L 287.99999449999996 72.00000039999998 L 305.99999449999996 72.00000039999998 L 305.99999449999996 72.00000039999998 L 305.99999449999996 108.00000039999998 L 305.99999449999996 108.00000039999998 L 287.99999449999996 108.00000039999998 L 287.99999449999996 108.00000039999998 L 287.99999449999996 144.00000039999998 L 287.99999449999996 144.00000039999998 L 305.99999449999996 144.00000039999998 L 305.99999449999996 144.00000039999998 L 305.99999449999996 180.00000039999998 L 305.99999449999996 180.00000039999998 L 287.99999449999996 180.00000039999998 L 287.99999449999996 180.00000039999998 L 287.99999449999996 216.00000039999998 L 287.99999449999996 216.00000039999998 L 305.99999449999996 216.00000039999998 L 305.99999449999996 216.00000039999998 L 305.99999449999996 252.00000039999998 L 305.99999449999996 252.00000039999998 L 287.99999449999996 252.00000039999998 L 287.99999449999996 252.00000039999998 L 287.99999449999996 288.0000004 L 287.99999449999996 288.0000004 L 305.99999449999996 288.0000004 L 305.99999449999996 288.0000004 L 305.9999945 324.0000004 L 305.9999945 324.0000004 L 287.9999945 324.0000004 L 287.9999945 324.0000004 L 287.9999945 360.0000004 L 287.9999945 360.0000004 L 305.9999945 360.0000004 L 305.9999945 360.0000004 L 305.9999945 396.0000004 L 305.9999945 396.0000004 L 287.9999945 396.0000004 L 287.9999945 396.0000004 L 287.9999945 432.0000004 L 287.9999945 432.0000004 L 324.8499909999999 432.0000004 L 324.8499909999999 432.0000004 L 324.8499909999999 450.0000004 L 324.8499909999999 450.0000004 L 360.8499909999999 450.0000004 L 360.8499909999999 450.0000004 L 360.8499909999999 432.0000004" fill="none" stroke="#000000"/><path d="M 467.9999945 432.0000004 L 467.9999945 414.0000004 L 467.9999945 414.0000004 L 503.9999945 414.0000004 L 503.9999945 414.0000004 L 503.9999945 432.0000004 L 503.9999945 432.0000004 L 540.8499909999998 432.0000004 L 540.8499909999998 432.0000004 L 540.8499909999998 450.0000004 L 540.8499909999998 450.0000004 L 558.8499909999998 450.0000004 L 558.8499909999998 450.0000004 L 558.8499909999998 468.0000004 L 558.8499909999998 468.0000004 L 576.8499909999998 468.0000004 L 576.8499909999998 468.0000004 L 576.8499909999998 504.0000004 L 576.8499909999998 504.0000004 L 558.8499909999998 504.0000004 L 558.8499909999998 504.0000004 L 558.849991 540.0000004 L 558.849991 540.0000004 L 576.849991 540.0000004 L 576.849991 540.0000004 L 576.849991 576.0000004 L 576.849991 576.0000004 L 558.849991 576.0000004 L 558.849991 576.0000004 L 558.849991 612.0000004 L 558.849991 612.0000004 L 576.849991 612.0000004 L 576.849991 612.0000004 L 576.849991 648.0000004 L 576.849991 648.0000004 L 558.849991 648.0000004 L 558.849991 648.0000004 L 558.849991 684.0000004 L 558.849991 684.0000004 L 576.849991 684.0000004 L 576.849991 684.0000004 L 576.849991 720.0000004 L 576.849991 720.0000004 L 540.849991 720.0000004 L 540.849991 720.0000004 L 540.849991 702.0000004 L 540.849991 702.0000004 L 504.849991 702.0000004 L 504.849991 702.0000004 L 504.849991 720.0000004 L 504.849991 720.0000004 L 468.849991 720.0000004 L 468.849991 720.0000004 L 468.849991 702.0000004 L 468.849991 702.0000004 L 432.849991 702.0000004 L 432.849991 702.0000004 L 432.849991 720.0000004 L 432.849991 720.0000004 L 396.849991 720.0000004 L 396.849991 720.0000004 L 396.849991 702.0000004 L 396.849991 702.0000004 L 360.849991 702.0000004 L 360.849991 702.0000004 L 360.849991 720.0000004 L 360.849991 720.0000004 L 324.849991 720.0000004 L 324.849991 720.0000004 L 324.849991 702.0000004 L 324.849991 702.0000004 L 306.849991 702.0000004 L 306.849991 702.0000004 L 306.849991 720.0000004 L 306.849991 720.0000004 L 288.849991 720.0000004 L 288.849991 720.0000004 L 288.849991 684.0000004 L 288.849991 684.0000004 L 306.849991 684.0000004 L 306.849991 684.0000004 L 306.84999099999993 648.0000004 L 306.84999099999993 648.0000004 L 288.84999099999993 648.0000004 L 288.84999099999993 648.0000004 L 288.84999099999993 612.0000004 L 288.84999099999993 612.0000004 L 306.84999099999993 612.0000004 L 306.84999099999993 612.0000004 L 306.84999099999993 576.0000004 L 306.84999099999993 576.0000004 L 288.84999099999993 576.0000004 L 288.84999099999993 576.0000004 L 288.84999099999993 540.0000004 L 288.84999099999993 540.0000004 L 306.84999099999993 540.0000004 L 306.84999099999993 540.0000004 L 306.84999099999993 504.0000004 L 306.84999099999993 504.0000004 L 288.84999099999993 504.0000004 L 288.84999099999993 504.0000004 L 288.84999099999993 468.0000004 L 288.84999099999993 468.0000004 L 306.84999099999993 468.0000004 L 306.84999099999993 468.0000004 L 306.84999099999993 432.0000004" fill="none" stroke="#000000"/><path d="M 395.9999945 432.0000004 L 395.9999945 414.0000004 L 395.9999945 414.0000004 L 431.9999945 414.0000004 L 431.9999945 414.0000004 L 431.9999945 432.0000004 L 431.9999945 432.0000004 L 468.8499909999999 432.0000004 L 468.8499909999999 432.0000004 L 468.8499909999999 450.0000004 L 468.8499909999999 450.0000004 L 504.8499909999999 450.0000004 L 504.8499909999999 450.0000004 L 504.8499909999999 432.0000004" fill="none" stroke="#000000"/><path d="M 323.9999945 432.0000004 L 323.9999945 414.0000004 L 323.9999945 414.0000004 L 359.9999945 414.0000004 L 359.9999945 414.0000004 L 359.9999945 432.0000004 L 359.9999945 432.0000004 L 396.8499909999999 432.0000004 L 396.8499909999999 432.0000004 L 396.8499909999999 450.0000004 L 396.8499909999999 450.0000004 L 432.8499909999999 450.0000004 L 432.8499909999999 450.0000004 L 432.8499909999999 432.0000004" fill="none" stroke="#000000"/><path d="M 326.2446467 720.0000004 L 326.2446467 756.0000004 L 326.2446467 756.0000004 L 344.2446467 756.0000004 L 344.2446467 756.0000004 L 344.2446467 792.0000004 L 344.2446467 792.0000004 L 326.2446467 792.0000004 L 326.2446467 792.0000004 L 326.2446467 828.0000004 L 326.2446467 828.0000004 L 344.2446467 828.0000004 L 344.2446467 828.0000004 L 344.2446467 864.0000004 L 344.2446467 864.0000004 L 326.2446467 864.0000004 L 326.2446467 864.0000004 L 326.2446467 900.0000004 L 326.2446467 900.0000004 L 344.2446467 900.0000004 L 344.2446467 900.0000004 L 344.2446467 936.0000004 L 344.2446467 936.0000004 L 326.2446467 936.0000004 L 326.2446467 936.0000004 L 326.2446467 972.0000004 L 326.2446467 972.0000004 L 344.2446467 972.0000004 L 344.2446467 972.0000004 L 344.2446467 990.0000004 L 344.2446467 990.0000004 L 362.2446467 990.0000004 L 362.2446467 990.0000004 L 362.2446467 1008.0000004 L 362.2446467 1008.0000004 L 398.2446467 1008.0000004 L 398.2446467 1008.0000004 L 398.2446467 990.0000004 L 398.2446467 990.0000004 L 434.2446467 990.0000004 L 434.2446467 990.0000004 L 434.2446467 1008.0000004 L 434.2446467 1008.0000004 L 470.2446467 1008.0000004 L 470.2446467 1008.0000004 L 470.2446467 990.0000004 L 470.2446467 990.0000004 L 506.2446467 990.0000004 L 506.2446467 990.0000004 L 506.2446467 1008.0000004 L 506.2446467 1008.0000004 L 542.2446467 1008.0000004 L 542.2446467 1008.0000004 L 542.2446467 990.0000004 L 542.2446467 990.0000004 L 578.2446467 990.0000004 L 578.2446467 990.0000004 L 578.2446467 1008.0000004 L 578.2446467 1008.0000004 L 614.2446467 1008.0000004 L 614.2446467 1008.0000004 L 614.2446467 972.0000004 L 614.2446467 972.0000004 L 596.2446467 972.0000004 L 596.2446467 972.0000004 L 596.2446467 936.0000004 L 596.2446467 936.0000004 L 614.2446467 936.0000004 L 614.2446467 936.0000004 L 614.2446467 900.0000004 L 614.2446467 900.0000004 L 596.2446467 900.0000004 L 596.2446467 900.0000004 L 596.2446467 864.0000004 L 596.2446467 864.0000004 L 614.2446467 864.0000004 L 614.2446467 864.0000004 L 614.2446467 828.0000004 L 614.2446467 828.0000004 L 596.2446467 828.0000004 L 596.2446467 828.0000004 L 596.2446467 792.0000004 L 596.2446467 792.0000004 L 614.2446467 792.0000004 L 614.2446467 792.0000004 L 614.2446467 756.0000004 L 614.2446467 756.0000004 L 596.2446467 756.0000004 L 596.2446467 756.0000004 L 596.2446467 720.0000004 L 596.2446467 720.0000004 L 578.2446467 720.0000004 L 578.2446467 720.0000004 L 578.2446467 738.0000004 L 578.2446467 738.0000004 L 542.2446467 738.0000004 L 542.2446467 738.0000004 L 542.2446467 720.0000004 L 542.2446467 720.0000004 L 506.2446467 720.0000004 L 506.2446467 720.0000004 L 506.2446467 738.0000004 L 506.2446467 738.0000004 L 470.2446467 738.0000004 L 470.2446467 738.0000004 L 470.2446467 720.0000004 L 470.2446467 720.0000004 L 434.2446467 720.0000004 L 434.2446467 720.0000004 L 434.2446467 738.0000004 L 434.2446467 738.0000004 L 398.2446467 738.0000004 L 398.2446467 738.0000004 L 398.2446467 720.0000004 L 398.2446467 720.0000004 L 362.2446467 720.0000004 L 362.2446467 720.0000004 L 362.2446467 738.0000004 L 362.2446467 738.0000004 L 344.2446467 738.0000004 L 344.2446467 738.0000004 L 344.2446467 720.0000004" fill="none" stroke="#000000"/></svg>