<?xml version="1.0" encoding="utf-8"?>
<!-- Generator: Adobe Illustrator 27.9.0, SVG Export Plug-In . SVG Version: 6.00 Build 0)  -->
<svg version="1.1" id="Layer_1" xmlns="http://www.w3.org/2000/svg" xmlns:xlink="http://www.w3.org/1999/xlink" x="0px" y="0px"
	 viewBox="0 0 295.2 483.1" style="enable-background:new 0 0 295.2 483.1;" xml:space="preserve">
<style type="text/css">
	.st0{fill:none;stroke:#000000;stroke-width:7.200000e-02;}
</style>
<ellipse transform="matrix(0.9951 -9.853756e-02 9.853756e-02 0.9951 -39.8441 14.0583)" class="st0" cx="122.4" cy="410.4" rx="7.8" ry="7.8"/>
<ellipse transform="matrix(0.9999 -1.020248e-02 1.020248e-02 0.9999 -4.186 0.2417)" class="st0" cx="21.6" cy="410.4" rx="7.8" ry="7.8"/>
<ellipse transform="matrix(0.9999 -1.020248e-02 1.020248e-02 0.9999 -3.1576 0.2365)" class="st0" cx="21.6" cy="309.6" rx="7.8" ry="7.8"/>
<ellipse transform="matrix(0.9951 -9.853756e-02 9.853756e-02 0.9951 -29.9116 13.5677)" class="st0" cx="122.4" cy="309.6" rx="7.8" ry="7.8"/>
<line class="st0" x1="144" y1="288" x2="144" y2="432"/>
<path class="st0" d="M272.5,0h-257l0,0v32.5l0,0H0l0,0v31.7l0,0h54l0,0v15.5l0,0H0l0,0v31.7l0,0h15.5l0,0V144l0,0h257l0,0v-32.5l0,0
	H288l0,0v-79l0,0h-15.5l0,0V0z"/>
<path class="st0" d="M272.5,288v-32.5l0,0H288l0,0v-31.7l0,0H54l0,0v-15.5l0,0h234l0,0v-31.7l0,0h-15.5l0,0V144"/>
<path class="st0" d="M15.5,288v-32.5l0,0H0l0,0v-79l0,0h15.5l0,0V144"/>
<path class="st0" d="M288,288v144l0,0H0l0,0V288l0,0H288z"/>
<path class="st0" d="M111.5,367.7H79.7l0,0v31.7l0,0H64.3l0,0v-31.7l0,0H32.5l0,0v-15.5l0,0h31.7l0,0v-31.7l0,0h15.5l0,0v31.7l0,0
	h31.7l0,0V367.7z"/>
<path class="st0" d="M255.5,367.7h-31.7l0,0v31.7l0,0h-15.5l0,0v-31.7l0,0h-31.7l0,0v-15.5l0,0h31.7l0,0v-31.7l0,0h15.5l0,0v31.7
	l0,0h31.7l0,0V367.7z"/>
</svg>
