<?xml version="1.0" encoding="utf-8"?>
<!-- Generator: Adobe Illustrator 27.9.0, SVG Export Plug-In . SVG Version: 6.00 Build 0)  -->
<svg version="1.1" id="_x30_" xmlns="http://www.w3.org/2000/svg" xmlns:xlink="http://www.w3.org/1999/xlink" x="0px" y="0px"
	 viewBox="0 0 1728 1296" style="enable-background:new 0 0 1728 1296;" xml:space="preserve">
<style type="text/css">
	.st0{fill:none;stroke:#000000;stroke-width:7.200000e-02;stroke-linecap:round;stroke-linejoin:round;stroke-miterlimit:10;}
</style>
<g id="LINE">
	<line class="st0" x1="299.5" y1="80.5" x2="299.5" y2="65"/>
</g>
<g id="LINE_00000095329568389338627770000012862757932639359893_">
	<line class="st0" x1="272.2" y1="80.5" x2="299.5" y2="80.5"/>
</g>
<g id="LINE_00000142168376441129430830000005920887474414276480_">
	<line class="st0" x1="272.2" y1="65" x2="272.2" y2="80.5"/>
</g>
<g id="LINE_00000157299722804429679680000005064501831269862540_">
	<line class="st0" x1="299.5" y1="65" x2="272.2" y2="65"/>
</g>
<g id="CIRCLE">
	<circle class="st0" cx="158" cy="66.5" r="6"/>
</g>
<g id="CIRCLE_00000123405567249674988210000014228530647843292324_">
	<circle class="st0" cx="158" cy="246.5" r="6"/>
</g>
<g id="CIRCLE_00000055677190485479813320000000955946481470196108_">
	<circle class="st0" cx="44.3" cy="84.9" r="7.8"/>
</g>
<g id="CIRCLE_00000151545284849354248620000001316984425065997477_">
	<circle class="st0" cx="44.3" cy="228" r="7.8"/>
</g>
<g id="CIRCLE_00000071555197282385421040000002654759417482969502_">
	<circle class="st0" cx="101.2" cy="74.7" r="3.5"/>
</g>
<g id="CIRCLE_00000018199371632225159720000011247246956855783602_">
	<circle class="st0" cx="101.2" cy="238.3" r="3.5"/>
</g>
<g id="CIRCLE_00000075142917201329599410000006717893425388324249_">
	<circle class="st0" cx="347.5" cy="238.3" r="3.5"/>
</g>
<g id="CIRCLE_00000146465679295149432680000015539173173233375137_">
	<circle class="st0" cx="347.5" cy="74.7" r="3.5"/>
</g>
<g id="LINE_00000144299945977665923540000001257142933859012524_">
	<line class="st0" x1="61.6" y1="92.7" x2="61.6" y2="220.3"/>
</g>
<g id="LINE_00000162346788294178751830000014224990503473057929_">
	<line class="st0" x1="140.8" y1="92.7" x2="61.6" y2="92.7"/>
</g>
<g id="LINE_00000074423752578608464620000008472057852413097372_">
	<line class="st0" x1="140.8" y1="220.3" x2="140.8" y2="92.7"/>
</g>
<g id="LINE_00000178195311521147987420000003583329238165658549_">
	<line class="st0" x1="61.6" y1="220.3" x2="140.8" y2="220.3"/>
</g>
<g id="LINE_00000034050234402245872320000004196666352896769684_">
	<line class="st0" x1="387.1" y1="220.3" x2="387.1" y2="92.7"/>
</g>
<g id="LINE_00000036956633327995148430000004287538007066486445_">
	<line class="st0" x1="307.9" y1="220.3" x2="387.1" y2="220.3"/>
</g>
<g id="LINE_00000031895954286323294220000003259475714906484138_">
	<line class="st0" x1="307.9" y1="92.7" x2="307.9" y2="220.3"/>
</g>
<g id="LINE_00000026134405931985271000000000443831035131311798_">
	<line class="st0" x1="387.1" y1="92.7" x2="307.9" y2="92.7"/>
</g>
<polygon class="st0" points="368.1,300.8 368.1,282.8 332.6,282.8 332.6,300.8 296.1,300.8 296.1,282.8 260.6,282.8 260.6,300.8 
	224.1,300.8 224.1,282.8 188.6,282.8 188.6,300.8 152.1,300.8 152.1,282.8 116.6,282.8 116.6,300.8 80.1,300.8 80.1,282.8 
	44.6,282.8 44.6,300.8 8.1,300.8 8.1,264.2 26.1,264.2 26.1,228.8 8.1,228.8 8.1,192.2 26.1,192.2 26.1,156.8 8.1,156.8 8.1,120.2 
	26.1,120.2 26.1,84.8 8.1,84.8 8.1,48.2 26.1,48.2 26.1,12.2 44.6,12.2 44.6,30.2 80.1,30.2 80.1,12.2 116.6,12.2 116.6,30.2 
	152.1,30.2 152.1,12.2 188.6,12.2 188.6,30.2 224.1,30.2 224.1,12.2 260.6,12.2 260.6,30.2 296.1,30.2 296.1,12.2 332.6,12.2 
	332.6,30.2 368.1,30.2 368.1,12.2 404.6,12.2 404.6,30.2 422.6,30.2 422.6,48.2 440.6,48.2 440.6,84.8 422.6,84.8 422.6,120.2 
	440.6,120.2 440.6,156.8 422.6,156.8 422.6,192.2 440.6,192.2 440.6,228.8 422.6,228.8 422.6,264.2 440.6,264.2 440.6,282.8 
	404.6,282.8 404.6,300.8 "/>
<g id="CIRCLE_00000045615817118119909290000012400385999961476245_">
	<circle class="st0" cx="215.6" cy="246.5" r="6"/>
</g>
<g id="CIRCLE_00000102508638572781825050000001649134639392757682_">
	<circle class="st0" cx="215.6" cy="66.5" r="6"/>
</g>
</svg>
